<?xml version="1.0" encoding="utf-8"?>
<!-- Generator: Adobe Illustrator 18.0.0, SVG Export Plug-In . SVG Version: 6.00 Build 0)  -->
<!DOCTYPE svg PUBLIC "-//W3C//DTD SVG 1.1//EN" "http://www.w3.org/Graphics/SVG/1.1/DTD/svg11.dtd">
<svg version="1.1" id="Layer_1" xmlns="http://www.w3.org/2000/svg" xmlns:xlink="http://www.w3.org/1999/xlink" x="0px" y="0px"
	 viewBox="0 0 512 512" enable-background="new 0 0 512 512" xml:space="preserve">
<g>
	<g>
		<g>
			<path d="M470.6,219.1c-47.4,0-94.7,0-142.1,0c-3.9,0-6.9-0.5-9.8-3.6c-2-2.2-1.8-5.4-1.8-8.2c0-9.4,0-18.9,0-28.3
				c0-31.4,0-62.9,0-94.3c0-11.4,0-22.7,0-34.1c0-6.8-0.4-16.1,9.3-16.1c22.9,0,45.7,0,68.6,0c24.8,0,49.7,0,74.5,0
				c4.8,0,9.6,2.4,10.3,7.7c0.2,1.8,0.1,3.8,0.1,5.7c0,10.3,0,20.5,0,30.8c0,30.1,0,60.2,0,90.2c0,10.9,0,21.8,0,32.7
				C479.6,208.8,480.7,218.7,470.6,219.1c-9.6,0.4-9.7,15.4,0,15c13.2-0.5,22.4-9.8,24-22.7c0.2-1.8,0.1-3.8,0.1-5.7
				c0-10.3,0-20.5,0-30.8c0-31.5,0-63,0-94.5c0-10.6,0-21.2,0-31.8c0-1.7,0-3.3,0-5c0-12.2-9.4-22.4-21.4-23.8
				c-6.8-0.8-14-0.2-20.8-0.2c-14.6,0-29.2,0-43.7,0c-26.5,0-53.1,0-79.6,0c-4,0-7.8,0.1-11.6,1.6c-9.4,3.5-15.6,12.7-15.6,22.7
				c0,6.8,0,13.6,0,20.4c0,30.7,0,61.3,0,92c0,13.2,0,26.4,0,39.6c0,6.9-0.8,14.7,1.1,21.5c2.9,10,12.9,16.8,23.1,16.8
				c2.3,0,4.6,0,6.9,0c12.2,0,24.3,0,36.5,0c29.8,0,59.5,0,89.3,0c3.9,0,7.8,0,11.8,0C480.3,234.1,480.3,219.1,470.6,219.1z"/>
		</g>
	</g>
	<g>
		<g>
			<path d="M456.5,181.7c-38.8,0-77.6,0-116.4,0c2.5,2.5,5,5,7.5,7.5c0-41.9,0-83.8,0-125.8c-2.5,2.5-5,5-7.5,7.5
				c38.8,0,77.6,0,116.4,0c-2.5-2.5-5-5-7.5-7.5c0,41.9,0,83.8,0,125.8c0,9.7,15,9.7,15,0c0-41.9,0-83.8,0-125.8
				c0-4.1-3.4-7.5-7.5-7.5c-38.8,0-77.6,0-116.4,0c-4.1,0-7.5,3.4-7.5,7.5c0,41.9,0,83.8,0,125.8c0,4.1,3.4,7.5,7.5,7.5
				c38.8,0,77.6,0,116.4,0C466.2,196.7,466.2,181.7,456.5,181.7z"/>
		</g>
	</g>
	<g>
		<g>
			<path d="M319.1,226.6c8.8-10.7,17.5-21.4,26.3-32.1c-1.8,0.7-3.5,1.5-5.3,2.2c38.8,0,77.6,0,116.4,0c-1.8-0.7-3.5-1.5-5.3-2.2
				c8.8,10.7,17.5,21.4,26.3,32.1c2.6,3.2,7.9,2.7,10.6,0c3.1-3.1,2.6-7.4,0-10.6c-7.8-9.5-15.6-19-23.4-28.5
				c-2.6-3.1-4.5-5.7-9.1-5.7c-3.5,0-7.1,0-10.6,0c-29.6,0-59.2,0-88.8,0c-7.2,0-17.9-2.2-22.9,4c-8.3,10.1-16.5,20.2-24.8,30.3
				c-2.6,3.2-3.1,7.5,0,10.6C311.2,229.3,316.5,229.8,319.1,226.6L319.1,226.6z"/>
		</g>
	</g>
	<g>
		<g>
			<path d="M477.4,27.1c-8.7,10.4-17.5,20.7-26.2,31.1c1.8-0.7,3.5-1.5,5.3-2.2c-38.8,0-77.6,0-116.4,0c1.8,0.7,3.5,1.5,5.3,2.2
				c-8.7-10.4-17.5-20.7-26.2-31.1c-6.2-7.4-16.8,3.3-10.6,10.6c7.9,9.4,15.8,18.7,23.7,28.1c2.5,3,4.7,5.2,9,5.2c3.7,0,7.3,0,11,0
				c29.6,0,59.2,0,88.8,0c7.2,0,17.2,2,22.3-4c8.2-9.8,16.5-19.5,24.7-29.3C494.2,30.3,483.6,19.7,477.4,27.1L477.4,27.1z"/>
		</g>
	</g>
	<g>
		<g>
			<path d="M494.6,210.1c0-49.7,0-99.4,0-149.1c0-5.8,0-11.5,0-17.3c0-9.7-15-9.7-15,0c0,49.7,0,99.4,0,149.1c0,5.8,0,11.5,0,17.3
				C479.6,219.8,494.6,219.8,494.6,210.1L494.6,210.1z"/>
		</g>
	</g>
	<g>
		<g>
			<path d="M470.6,477.4c-47.4,0-94.7,0-142.1,0c-3.9,0-6.9-0.5-9.8-3.6c-2-2.2-1.8-5.4-1.8-8.2c0-9.4,0-18.9,0-28.3
				c0-31.4,0-62.9,0-94.3c0-11.4,0-22.7,0-34.1c0-6.8-0.4-16.1,9.3-16.1c22.9,0,45.7,0,68.6,0c24.8,0,49.7,0,74.5,0
				c4.8,0,9.6,2.4,10.3,7.7c0.2,1.8,0.1,3.8,0.1,5.7c0,10.3,0,20.5,0,30.8c0,30.1,0,60.2,0,90.2c0,10.9,0,21.8,0,32.7
				C479.6,467.1,480.7,477,470.6,477.4c-9.6,0.4-9.7,15.4,0,15c13.2-0.5,22.4-9.8,24-22.7c0.2-1.8,0.1-3.8,0.1-5.7
				c0-10.3,0-20.5,0-30.8c0-31.5,0-63,0-94.5c0-10.6,0-21.2,0-31.8c0-1.7,0-3.3,0-5c0-12.2-9.4-22.4-21.4-23.8
				c-6.8-0.8-14-0.2-20.8-0.2c-14.6,0-29.2,0-43.7,0c-26.5,0-53.1,0-79.6,0c-4,0-7.8,0.1-11.6,1.6c-9.4,3.5-15.6,12.7-15.6,22.7
				c0,6.8,0,13.6,0,20.4c0,30.7,0,61.3,0,92c0,13.2,0,26.4,0,39.6c0,6.9-0.8,14.7,1.1,21.5c2.9,10,12.9,16.8,23.1,16.8
				c2.3,0,4.6,0,6.9,0c12.2,0,24.3,0,36.5,0c29.8,0,59.5,0,89.3,0c3.9,0,7.8,0,11.8,0C480.3,492.4,480.3,477.4,470.6,477.4z"/>
		</g>
	</g>
	<g>
		<g>
			<path d="M456.5,440c-38.8,0-77.6,0-116.4,0c2.5,2.5,5,5,7.5,7.5c0-41.9,0-83.8,0-125.8c-2.5,2.5-5,5-7.5,7.5
				c38.8,0,77.6,0,116.4,0c-2.5-2.5-5-5-7.5-7.5c0,41.9,0,83.8,0,125.8c0,9.7,15,9.7,15,0c0-41.9,0-83.8,0-125.8
				c0-4.1-3.4-7.5-7.5-7.5c-38.8,0-77.6,0-116.4,0c-4.1,0-7.5,3.4-7.5,7.5c0,41.9,0,83.8,0,125.8c0,4.1,3.4,7.5,7.5,7.5
				c38.8,0,77.6,0,116.4,0C466.2,455,466.2,440,456.5,440z"/>
		</g>
	</g>
	<g>
		<g>
			<path d="M319.1,484.9c8.8-10.7,17.5-21.4,26.3-32.1c-1.8,0.7-3.5,1.5-5.3,2.2c38.8,0,77.6,0,116.4,0c-1.8-0.7-3.5-1.5-5.3-2.2
				c8.8,10.7,17.5,21.4,26.3,32.1c2.6,3.2,7.9,2.7,10.6,0c3.1-3.1,2.6-7.4,0-10.6c-7.8-9.5-15.6-19-23.4-28.5
				c-2.6-3.1-4.5-5.7-9.1-5.7c-3.5,0-7.1,0-10.6,0c-29.6,0-59.2,0-88.8,0c-7.2,0-17.9-2.2-22.9,4c-8.3,10.1-16.5,20.2-24.8,30.3
				c-2.6,3.2-3.1,7.5,0,10.6C311.2,487.5,316.5,488,319.1,484.9L319.1,484.9z"/>
		</g>
	</g>
	<g>
		<g>
			<path d="M477.4,285.3c-8.7,10.4-17.5,20.7-26.2,31.1c1.8-0.7,3.5-1.5,5.3-2.2c-38.8,0-77.6,0-116.4,0c1.8,0.7,3.5,1.5,5.3,2.2
				c-8.7-10.4-17.5-20.7-26.2-31.1c-6.2-7.4-16.8,3.3-10.6,10.6c7.9,9.4,15.8,18.7,23.7,28.1c2.5,3,4.7,5.2,9,5.2c3.7,0,7.3,0,11,0
				c29.6,0,59.2,0,88.8,0c7.2,0,17.2,2,22.3-4c8.2-9.8,16.5-19.6,24.7-29.3C494.2,288.6,483.6,277.9,477.4,285.3L477.4,285.3z"/>
		</g>
	</g>
	<g>
		<g>
			<path d="M494.6,468.4c0-49.7,0-99.4,0-149.1c0-5.8,0-11.5,0-17.3c0-9.7-15-9.7-15,0c0,49.7,0,99.4,0,149.1c0,5.8,0,11.5,0,17.3
				C479.6,478,494.6,478,494.6,468.4L494.6,468.4z"/>
		</g>
	</g>
	<g>
		<g>
			<path d="M225.3,402.4c-49.9,0-99.8,0-149.7,0c-9.9,0-19.7,0-29.6,0c-6.5,0-13.6-1.1-13.6-9.6c0-16.6,0-33.2,0-49.8
				c0-60.4,0-120.8,0-181.2c0-8,0-16,0-23.9c0-6.3,1-13.4,9.3-13.4c20.1,0,40.2,0,60.3,0c31.3,0,62.6,0,93.9,0c8.9,0,17.8,0,26.7,0
				c6.6,0,11.8,3,11.8,10.3c0,49.8,0,99.7,0,149.5c0,26.9,0,53.8,0,80.7c0,7.7,0,15.4,0,23C234.4,394.6,234,402.1,225.3,402.4
				c-9.6,0.4-9.7,15.4,0,15c15.2-0.6,24.1-12.5,24.1-26.9c0-7.2,0-14.5,0-21.7c0-28.2,0-56.3,0-84.5c0-49.8,0-99.7,0-149.5
				c0-13.9-10.3-25.3-24.5-25.3c-6.8,0-13.7,0-20.5,0c-30.3,0-60.6,0-90.8,0c-23.3,0-46.6,0-69.9,0c-14,0-26.3,9.4-26.3,24.2
				c0,4.8,0,9.6,0,14.4c0,58.1,0,116.2,0,174.3c0,21.8,0,43.6,0,65.4c0,9.8,1.5,19.3,10.5,25.4c7.3,5,15.7,4.2,24,4.2
				c55,0,109.9,0,164.9,0c2.9,0,5.7,0,8.6,0C235,417.4,235,402.4,225.3,402.4z"/>
		</g>
	</g>
	<g>
		<g>
			<path d="M204.4,347.5c-46.8,0-93.6,0-140.4,0c-0.6,0-1.2,0-1.7,0c2.5,2.5,5,5,7.5,7.5c0-49.9,0-99.8,0-149.7
				c0-11.6,0-23.2,0-34.9c-2.5,2.5-5,5-7.5,7.5c46.8,0,93.6,0,140.4,0c0.6,0,1.2,0,1.7,0c-2.5-2.5-5-5-7.5-7.5
				c0,49.9,0,99.8,0,149.7c0,11.6,0,23.2,0,34.9c0,9.7,15,9.7,15,0c0-49.9,0-99.8,0-149.7c0-11.6,0-23.2,0-34.9
				c0-4.1-3.4-7.5-7.5-7.5c-46.8,0-93.6,0-140.4,0c-0.6,0-1.2,0-1.7,0c-4.1,0-7.5,3.4-7.5,7.5c0,49.9,0,99.8,0,149.7
				c0,11.6,0,23.2,0,34.9c0,4.1,3.4,7.5,7.5,7.5c46.8,0,93.6,0,140.4,0c0.6,0,1.2,0,1.7,0C214.1,362.5,214.1,347.5,204.4,347.5z"/>
		</g>
	</g>
	<g>
		<g>
			<path d="M231.4,118.9c-11.1,15.9-22.3,31.8-33.4,47.7c2.2-1.2,4.3-2.5,6.5-3.7c-46.8,0-93.6,0-140.4,0c-0.6,0-1.2,0-1.7,0
				c2.2,1.2,4.3,2.5,6.5,3.7c-11.1-15.9-22.3-31.8-33.4-47.7c-5.5-7.9-18.5-0.4-13,7.6c6.7,9.6,13.4,19.1,20.1,28.7
				c3.8,5.4,7.6,10.8,11.3,16.2c2.3,3.3,4.4,6.5,9,6.5c23.8,0,47.7,0,71.5,0c23.2,0,46.4,0,69.6,0c4.6,0,6.6-3.3,8.9-6.5
				c3.8-5.4,7.6-10.8,11.3-16.2c6.7-9.6,13.4-19.1,20.1-28.7C249.9,118.6,236.9,111.1,231.4,118.9L231.4,118.9z"/>
		</g>
	</g>
	<g>
		<g>
			<path d="M249.4,393.4c0-45,0-89.9,0-134.9c0-41.6,0-83.3,0-124.9c0-9.7-15-9.7-15,0c0,45,0,89.9,0,134.9c0,41.6,0,83.3,0,124.9
				C234.4,403,249.4,403,249.4,393.4L249.4,393.4z"/>
		</g>
	</g>
	<g>
		<g>
			<path d="M244.4,400.3c-6.5-9.5-13-19.1-19.5-28.6c-3.8-5.6-7.7-11.2-11.5-16.8c-2.4-3.5-4.4-7.4-9.3-7.4c-23.2,0-46.5,0-69.7,0
				c-23.8,0-47.7,0-71.5,0c-4.6,0-6.7,3.2-9,6.5c-3.7,5.4-7.3,10.7-11,16.1c-6.9,10.1-13.7,20.1-20.6,30.2c0,0,0,0,0,0.1
				c-5.5,8,7.5,15.5,13,7.6c11.2-16.4,22.3-32.7,33.5-49.1c-2.2,1.2-4.3,2.5-6.5,3.7c46.8,0,93.6,0,140.4,0c0.6,0,1.2,0,1.7,0
				c-2.2-1.2-4.3-2.5-6.5-3.7c11.2,16.4,22.3,32.7,33.5,49.1C236.8,415.8,249.8,408.3,244.4,400.3L244.4,400.3z"/>
		</g>
	</g>
</g>
</svg>
